<svg width="24" height="24" viewBox="0 0 24 24" fill="none" xmlns="http://www.w3.org/2000/svg">
<path d="M0.5 20.5V3.5C0.5 2.94772 0.947715 2.5 1.5 2.5H7.5V4.5C7.5 5.05228 7.94772 5.5 8.5 5.5H22.5C23.0523 5.5 23.5 5.94772 23.5 6.5V20.5C23.5 21.0523 23.0523 21.5 22.5 21.5H1.5C0.947715 21.5 0.5 21.0523 0.5 20.5Z" fill="var(--mw-icon-background-default-light-gray, #F5F5F5)" stroke="var(--mw-icon-glyph-disabled-gray, #888889)"/>
<path d="M17.5 1V4M16 2.5H19" stroke="var(--mw-icon-object-primary, #616160)"/>
<path d="M7.5 5.5V2.5H14C14.2761 2.5 14.5 2.72386 14.5 3V5.5H7.5Z" fill="var(--mw-icon-background-default-light-gray, #F5F5F5)"/>
<path d="M7.5 2.5V2H7V2.5H7.5ZM7.5 5.5H7C7 5.77614 7.22386 6 7.5 6V5.5ZM14.5 5.5V6H15V5.5H14.5ZM7 2.5V5.5H8V2.5H7ZM7.5 6H14.5V5H7.5V6ZM15 5.5V3H14V5.5H15ZM14 2H7.5V3H14V2ZM15 3C15 2.44772 14.5523 2 14 2V3V3H15Z" fill="var(--mw-icon-glyph-disabled-gray, #888889)"/>
<path d="M7.5 2.5V5.5H12.5V17.5H0.5V3.5C0.5 2.94772 0.947715 2.5 1.5 2.5H7.5Z" fill="var(--mw-icon-background-default-medium-gray, #D9D9D9)"/>
<path d="M7.5 5.5H7C7 5.77614 7.22386 6 7.5 6V5.5ZM7.5 2.5H8C8 2.22386 7.77614 2 7.5 2V2.5ZM12.5 5.5H13C13 5.22386 12.7761 5 12.5 5V5.5ZM12.5 17.5V18C12.7761 18 13 17.7761 13 17.5H12.5ZM0.5 17.5H0V18H0.5V17.5ZM8 5.5V2.5H7V5.5H8ZM7.5 2H1.5V3H7.5V2ZM1 3.5C1 3.22386 1.22386 3 1.5 3V2C0.671573 2 0 2.67157 0 3.5H1ZM12 5.5V17.5H13V5.5H12ZM12.5 17H0.5V18H12.5V17ZM7.5 6H12.5V5H7.5V6ZM1 17.5V3.5H0V17.5H1Z" fill="var(--mw-icon-border-default-gray, #616161)"/>
<path d="M2 7.5H11M2 9.5H9M2 11.5H10M2 13.5H6M2 15.5H9M2 4.5H5" stroke="var(--mw-icon-glyph-content-gray, #616162)"/>
</svg>
