<svg width="24" height="24" viewBox="0 0 24 24" fill="none" xmlns="http://www.w3.org/2000/svg">
<path d="M0.5 20.5V2.5C0.5 1.39543 1.39543 0.5 2.5 0.5H20.5C21.6046 0.5 22.5 1.39543 22.5 2.5V20.5C22.5 21.6046 21.6046 22.5 20.5 22.5H2.5C1.39543 22.5 0.5 21.6046 0.5 20.5Z" fill="var(--mw-icon-background-default-light-gray, #F5F5F5)" stroke="var(--mw-icon-border-default-gray, #616161)"/>
<path d="M2.5 9.5V3.5C2.5 2.94772 2.94772 2.5 3.5 2.5H19.5C20.0523 2.5 20.5 2.94772 20.5 3.5V9.5C20.5 10.0523 20.0523 10.5 19.5 10.5H3.5C2.94772 10.5 2.5 10.0523 2.5 9.5Z" fill="var(--mw-icon-background-default-white, #FFFFFF)"/>
<path d="M2.5 19.5V13.5C2.5 12.9477 2.94772 12.5 3.5 12.5H9.5C10.0523 12.5 10.5 12.9477 10.5 13.5V19.5C10.5 20.0523 10.0523 20.5 9.5 20.5H3.5C2.94772 20.5 2.5 20.0523 2.5 19.5Z" fill="var(--mw-icon-background-default-white, #FFFFFF)"/>
<path d="M12.5 14.5V13.5C12.5 12.9477 12.9477 12.5 13.5 12.5H19.5C20.0523 12.5 20.5 12.9477 20.5 13.5V14.5C20.5 15.0523 20.0523 15.5 19.5 15.5H13.5C12.9477 15.5 12.5 15.0523 12.5 14.5Z" fill="var(--mw-icon-background-default-white, #FFFFFF)"/>
<path d="M12.5 19.5V18.5C12.5 17.9477 12.9477 17.5 13.5 17.5H19.5C20.0523 17.5 20.5 17.9477 20.5 18.5V19.5C20.5 20.0523 20.0523 20.5 19.5 20.5H13.5C12.9477 20.5 12.5 20.0523 12.5 19.5Z" fill="var(--mw-icon-background-default-white, #FFFFFF)"/>
<path d="M2.5 9.5V3.5C2.5 2.94772 2.94772 2.5 3.5 2.5H19.5C20.0523 2.5 20.5 2.94772 20.5 3.5V9.5C20.5 10.0523 20.0523 10.5 19.5 10.5H3.5C2.94772 10.5 2.5 10.0523 2.5 9.5Z" stroke="var(--mw-icon-glyph-content-gray, #616162)"/>
<path d="M2.5 19.5V13.5C2.5 12.9477 2.94772 12.5 3.5 12.5H9.5C10.0523 12.5 10.5 12.9477 10.5 13.5V19.5C10.5 20.0523 10.0523 20.5 9.5 20.5H3.5C2.94772 20.5 2.5 20.0523 2.5 19.5Z" stroke="var(--mw-icon-glyph-content-gray, #616162)"/>
<path d="M12.5 14.5V13.5C12.5 12.9477 12.9477 12.5 13.5 12.5H19.5C20.0523 12.5 20.5 12.9477 20.5 13.5V14.5C20.5 15.0523 20.0523 15.5 19.5 15.5H13.5C12.9477 15.5 12.5 15.0523 12.5 14.5Z" stroke="var(--mw-icon-glyph-content-gray, #616162)"/>
<path d="M12.5 19.5V18.5C12.5 17.9477 12.9477 17.5 13.5 17.5H19.5C20.0523 17.5 20.5 17.9477 20.5 18.5V19.5C20.5 20.0523 20.0523 20.5 19.5 20.5H13.5C12.9477 20.5 12.5 20.0523 12.5 19.5Z" stroke="var(--mw-icon-glyph-content-gray, #616162)"/>
<path d="M4.5 6.5H18.5M4.5 8.5H12.5M4.5 4.5H16.5M4 17L5.5 18.5L9 15" stroke="var(--mw-icon-glyph-content-gray, #616162)" stroke-linecap="round" stroke-linejoin="round"/>
</svg>
